<svg width="32" height="32" viewBox="0 0 32 32" fill="none" xmlns="http://www.w3.org/2000/svg">
<g clip-path="url(#clip0_2211_1975)">
<path d="M15.9914 32C24.8232 32 31.9828 24.8365 31.9828 16C31.9828 7.16344 24.8232 0 15.9914 0C7.1596 0 0 7.16344 0 16C0 24.8365 7.1596 32 15.9914 32Z" fill="white"/>
<path d="M15.9915 32C13.019 32.0047 10.1054 31.1771 7.5791 29.6102L18.2917 0.164307C20.1876 0.437069 22.02 1.05078 23.6975 1.97601C31.4392 6.22552 34.2738 15.9489 30.0265 23.6963C27.2167 28.8229 21.8357 32.0062 15.9915 32Z" fill="#6E7BF2"/>
<path d="M10.5671 15.9301C10.5717 15.6605 10.5439 15.3908 10.485 15.1289H6.80469V16.5842H8.96548C8.88338 17.1002 8.59373 17.559 8.16467 17.8565L8.15692 17.9046L9.32019 18.8065L9.40074 18.8143C10.1396 18.1308 10.5671 17.125 10.5671 15.9301Z" fill="#4285F4"/>
<path d="M6.80435 19.7643C7.86228 19.7643 8.75138 19.4156 9.40039 18.8143L8.16433 17.855C7.76315 18.1246 7.28762 18.261 6.8059 18.2471C5.78978 18.2409 4.89139 17.5838 4.5754 16.6167L4.52893 16.6213L3.3192 17.5574L3.30371 17.6008C3.96666 18.929 5.322 19.7659 6.80435 19.7643Z" fill="#34A853"/>
<path d="M4.5741 16.6183C4.48891 16.3688 4.44399 16.1069 4.44399 15.8419C4.44554 15.5784 4.48891 15.3165 4.571 15.0655L4.56946 15.0143L3.34423 14.0627L3.30396 14.0813C2.74634 15.1894 2.74634 16.4944 3.30396 17.6025L4.5741 16.6183Z" fill="#FBBC05"/>
<path d="M6.80451 13.4383C7.36679 13.429 7.90892 13.6382 8.31939 14.0226L9.42535 12.9424C8.71592 12.2759 7.77571 11.9118 6.80297 11.9226C5.32062 11.9226 3.96528 12.7579 3.30078 14.0846L4.56783 15.0687C4.88691 14.1016 5.78685 13.4445 6.80451 13.4383Z" fill="#EB4335"/>
<path d="M16.736 16.279V19.1291H15.8252V12.0884H18.24C18.8209 12.076 19.3847 12.2945 19.8045 12.6975C20.627 13.4553 20.6796 14.7385 19.9206 15.5615C19.8835 15.6018 19.8447 15.6405 19.8045 15.6777C19.3831 16.0775 18.8209 16.293 18.24 16.2775L16.736 16.279ZM16.736 12.9547V15.4127H18.2617C18.5994 15.4235 18.9262 15.2918 19.1616 15.0485C19.6372 14.5913 19.6511 13.8365 19.1942 13.3608C19.1911 13.3577 19.188 13.3546 19.1849 13.3515C19.1771 13.3437 19.1694 13.3344 19.1616 13.3282C18.9277 13.0803 18.6009 12.9454 18.2617 12.9547H16.736ZM22.5539 14.1543C23.2276 14.1543 23.7589 14.3325 24.1477 14.6905C24.5365 15.0469 24.7317 15.5367 24.7317 16.1597V19.1291H23.8612V18.4596H23.8224C23.446 19.0097 22.9442 19.2856 22.3169 19.2856C21.8274 19.3011 21.3488 19.1337 20.977 18.8129C20.6285 18.5216 20.4302 18.0876 20.438 17.6335C20.4225 17.1686 20.6347 16.7238 21.0064 16.4448C21.3859 16.1504 21.8924 16.0031 22.526 16.0031C22.9891 15.9861 23.4491 16.0868 23.8612 16.2976V16.0899C23.8627 15.78 23.7249 15.4855 23.4848 15.2902C23.2431 15.0748 22.9302 14.957 22.6065 14.9617C22.1201 14.9508 21.6632 15.1926 21.3999 15.6002L20.5991 15.0981C21.0359 14.4689 21.688 14.1543 22.5539 14.1543ZM21.3751 17.6537C21.3735 17.8877 21.4866 18.1078 21.6756 18.2441C21.877 18.4022 22.1279 18.4844 22.3835 18.4797C22.7676 18.4797 23.1347 18.3278 23.4073 18.0566C23.6939 17.8071 23.8596 17.4445 23.8596 17.0632C23.5746 16.8385 23.1796 16.7253 22.6716 16.7253C22.3432 16.713 22.0179 16.8059 21.7468 16.9904C21.5192 17.136 21.3797 17.384 21.3751 17.6537ZM29.7302 14.3123L26.6911 21.2523H25.7509L26.8785 18.8238L24.8788 14.3108H25.8686L27.3138 17.7715H27.3339L28.7388 14.3108L29.7302 14.3123Z" fill="white"/>
</g>
<defs>
<clipPath id="clip0_2211_1975">
<rect width="32" height="32" fill="white"/>
</clipPath>
</defs>
</svg>
