<svg width="20" height="18" viewBox="0 0 20 18" fill="none" xmlns="http://www.w3.org/2000/svg">
<mask id="mask0_2375_4361" style="mask-type:luminance" maskUnits="userSpaceOnUse" x="0" y="0" width="20" height="18">
<path d="M19.3542 0H0V18H19.3542V0Z" fill="white"/>
</mask>
<g mask="url(#mask0_2375_4361)">
<path d="M9.6769 17.0625C4.89479 17.0625 1.00781 13.4475 1.00781 9C1.00781 4.5525 4.89479 0.9375 9.6769 0.9375C10.0075 0.9375 10.2817 1.1925 10.2817 1.5C10.2817 1.8075 10.0075 2.0625 9.6769 2.0625C5.56412 2.0625 2.21745 5.175 2.21745 9C2.21745 12.825 5.56412 15.9375 9.6769 15.9375C13.7897 15.9375 17.1363 12.825 17.1363 9C17.1363 8.6925 17.4105 8.4375 17.7412 8.4375C18.0718 8.4375 18.346 8.6925 18.346 9C18.346 13.4475 14.459 17.0625 9.6769 17.0625Z" fill="black"/>
<path d="M17.7417 5.0625C17.411 5.0625 17.1368 4.8075 17.1368 4.5V2.0625H14.516C14.1853 2.0625 13.9111 1.8075 13.9111 1.5C13.9111 1.1925 14.1853 0.9375 14.516 0.9375H17.7417C18.0723 0.9375 18.3465 1.1925 18.3465 1.5V4.5C18.3465 4.8075 18.0723 5.0625 17.7417 5.0625Z" fill="black"/>
<path d="M13.7092 5.81282C13.556 5.81282 13.4028 5.76032 13.2818 5.64782C13.048 5.43032 13.048 5.07032 13.2818 4.85282L17.314 1.10282C17.5478 0.885322 17.9349 0.885322 18.1688 1.10282C18.4027 1.32032 18.4027 1.68032 18.1688 1.89782L14.1367 5.64782C14.0157 5.76032 13.8625 5.81282 13.7092 5.81282Z" fill="black"/>
<path d="M9.85801 12.8983C9.14467 12.8983 8.59467 12.7083 8.20801 12.3283C7.82134 11.9483 7.62801 11.3783 7.62801 10.6183V9.27832C8.24134 9.27832 8.72801 9.26165 9.08801 9.22832C9.45467 9.19499 9.72467 9.13165 9.89801 9.03832C10.0713 8.93832 10.1847 8.78499 10.238 8.57832C10.298 8.37165 10.328 8.09165 10.328 7.73832V6.29832H11.728V7.70832C11.728 8.12832 11.6813 8.49832 11.588 8.81832C11.4947 9.13832 11.3447 9.40499 11.138 9.61832C10.9313 9.83165 10.6547 9.99499 10.308 10.1083C9.96134 10.215 9.53467 10.2683 9.02801 10.2683V10.7983C9.02801 11.0783 9.08467 11.3083 9.19801 11.4883C9.31801 11.6683 9.53134 11.7583 9.83801 11.7583C10.1247 11.7583 10.3247 11.675 10.438 11.5083C10.558 11.335 10.618 11.0983 10.618 10.7983H11.998C11.978 11.4583 11.788 11.975 11.428 12.3483C11.0747 12.715 10.5513 12.8983 9.85801 12.8983ZM7.37801 8.44832V7.51832H12.698V8.44832H7.37801ZM7.37801 6.79832V5.77832H12.698V6.79832H7.37801Z" fill="black"/>
</g>
</svg>
