<svg width="18" height="18" viewBox="0 0 18 18" fill="none" xmlns="http://www.w3.org/2000/svg">
<mask id="mask0_2375_3635" style="mask-type:luminance" maskUnits="userSpaceOnUse" x="0" y="0" width="18" height="18">
<path d="M18 0H0V18H18V0Z" fill="white"/>
</mask>
<g mask="url(#mask0_2375_3635)">
<path d="M10.6963 11.5789H6.94629" stroke="black" stroke-width="1.5" stroke-miterlimit="10" stroke-linecap="round" stroke-linejoin="round"/>
<path d="M8.82129 9.7485V13.4985" stroke="black" stroke-width="1.5" stroke-miterlimit="10" stroke-linecap="round" stroke-linejoin="round"/>
<path d="M9.49476 1.8886L9.47226 1.9411L7.29723 6.9886H5.15973C4.64973 6.9886 4.16223 7.0936 3.71973 7.2811L5.03223 4.1461L5.06223 4.0711L5.11473 3.9511C5.12973 3.9061 5.14473 3.8611 5.16723 3.8236C6.14973 1.5511 7.25973 1.0336 9.49476 1.8886Z" stroke="black" stroke-width="1.5" stroke-linecap="round" stroke-linejoin="round"/>
<path d="M13.5379 7.13892C13.2004 7.03392 12.8404 6.98892 12.4804 6.98892H7.29785L9.47287 1.94142L9.49537 1.88892C9.60787 1.92642 9.71287 1.97892 9.82537 2.02392L11.4829 2.72142C12.4054 3.10392 13.0504 3.50142 13.4404 3.98142C13.5154 4.07142 13.5754 4.15392 13.6279 4.25142C13.6954 4.35642 13.7479 4.46142 13.7779 4.57392C13.8079 4.64142 13.8304 4.70892 13.8454 4.76892C14.0479 5.39892 13.9279 6.17142 13.5379 7.13892Z" stroke="black" stroke-width="1.5" stroke-linecap="round" stroke-linejoin="round"/>
<path d="M16.1413 10.6488V12.1113C16.1413 12.2613 16.1338 12.4113 16.1263 12.5613C15.9838 15.1788 14.5213 16.4988 11.7463 16.4988H5.89629C5.71629 16.4988 5.53629 16.4838 5.36379 16.4613C2.97879 16.3038 1.70379 15.0288 1.54629 12.6438C1.52379 12.4713 1.50879 12.2913 1.50879 12.1113V10.6488C1.50879 9.1413 2.42379 7.8438 3.72879 7.28127C4.17879 7.09377 4.65879 6.98877 5.16879 6.98877H12.4888C12.8563 6.98877 13.2163 7.04127 13.5463 7.13877C15.0388 7.5963 16.1413 8.9913 16.1413 10.6488Z" stroke="black" stroke-width="1.5" stroke-linecap="round" stroke-linejoin="round"/>
<path d="M5.0325 4.14624L3.72 7.28124C2.415 7.84373 1.5 9.14123 1.5 10.6487V8.45123C1.5 6.32124 3.015 4.54374 5.0325 4.14624Z" stroke="black" stroke-width="1.5" stroke-linecap="round" stroke-linejoin="round"/>
<path d="M16.1389 8.45077V10.6483C16.1389 8.99827 15.0439 7.59577 13.5439 7.14574C13.9339 6.17074 14.0464 5.40574 13.8589 4.76824C13.8439 4.70074 13.8214 4.63324 13.7914 4.57324C15.1864 5.29324 16.1389 6.77074 16.1389 8.45077Z" stroke="black" stroke-width="1.5" stroke-linecap="round" stroke-linejoin="round"/>
</g>
</svg>
