<svg width="17" height="17" viewBox="0 0 17 17" fill="none" xmlns="http://www.w3.org/2000/svg">
<path d="M8.0625 16.1251C3.615 16.1251 0 12.5101 0 8.06258C0 3.61508 3.615 7.62939e-05 8.0625 7.62939e-05C8.37 7.62939e-05 8.625 0.255076 8.625 0.562576C8.625 0.870076 8.37 1.12508 8.0625 1.12508C4.2375 1.12508 1.125 4.23758 1.125 8.06258C1.125 11.8876 4.2375 15.0001 8.0625 15.0001C11.8875 15.0001 15 11.8876 15 8.06258C15 7.75508 15.255 7.50008 15.5625 7.50008C15.87 7.50008 16.125 7.75508 16.125 8.06258C16.125 12.5101 12.51 16.1251 8.0625 16.1251Z" fill="black"/>
<path d="M11.8145 0.750397C12.122 0.750397 12.377 1.0054 12.377 1.3129V3.7504H14.8145C15.122 3.7504 15.377 4.0054 15.377 4.3129C15.377 4.6204 15.122 4.8754 14.8145 4.8754H11.8145C11.507 4.8754 11.252 4.6204 11.252 4.3129V1.3129C11.252 1.0054 11.507 0.750397 11.8145 0.750397Z" fill="black"/>
<path d="M15.5644 7.43866e-05C15.7069 7.43866e-05 15.8494 0.0525746 15.9619 0.165075C16.1794 0.382575 16.1794 0.742575 15.9619 0.960075L12.2119 4.71007C11.9944 4.92757 11.6344 4.92757 11.4169 4.71007C11.1994 4.49257 11.1994 4.13257 11.4169 3.91507L15.1669 0.165075C15.2794 0.0525746 15.4219 7.43866e-05 15.5644 7.43866e-05Z" fill="black"/>
<path d="M7.92051 11.9609C7.20717 11.9609 6.65717 11.7709 6.27051 11.3909C5.88384 11.0109 5.69051 10.4409 5.69051 9.68087V8.34087C6.30384 8.34087 6.79051 8.3242 7.15051 8.29087C7.51717 8.25753 7.78717 8.1942 7.96051 8.10087C8.13384 8.00087 8.24717 7.84753 8.30051 7.64087C8.36051 7.4342 8.39051 7.1542 8.39051 6.80087V5.36087H9.79051V6.77087C9.79051 7.19087 9.74384 7.56087 9.65051 7.88087C9.55717 8.20087 9.40717 8.46753 9.20051 8.68087C8.99384 8.8942 8.71717 9.05753 8.37051 9.17087C8.02384 9.27753 7.59717 9.33087 7.09051 9.33087V9.86087C7.09051 10.1409 7.14717 10.3709 7.26051 10.5509C7.38051 10.7309 7.59384 10.8209 7.90051 10.8209C8.18717 10.8209 8.38717 10.7375 8.50051 10.5709C8.62051 10.3975 8.68051 10.1609 8.68051 9.86087H10.0605C10.0405 10.5209 9.85051 11.0375 9.49051 11.4109C9.13717 11.7775 8.61384 11.9609 7.92051 11.9609ZM5.44051 7.51087V6.58087H10.7605V7.51087H5.44051ZM5.44051 5.86087V4.84087H10.7605V5.86087H5.44051Z" fill="black"/>
</svg>
