<svg width="18" height="18" viewBox="0 0 18 18" fill="none" xmlns="http://www.w3.org/2000/svg">
<g clip-path="url(#clip0_2375_3594)">
<mask id="mask0_2375_3594" style="mask-type:luminance" maskUnits="userSpaceOnUse" x="0" y="0" width="18" height="18">
<path d="M18 0H0V18H18V0Z" fill="white"/>
</mask>
<g mask="url(#mask0_2375_3594)">
<path d="M16.5 9V12.75C16.5 15 15 16.5 12.75 16.5H5.25C3 16.5 1.5 15 1.5 12.75V9C1.5 6.96 2.73 5.535 4.6425 5.295C4.8375 5.265 5.04 5.25 5.25 5.25H12.75C12.945 5.25 13.1325 5.25749 13.3125 5.28749C15.2475 5.51249 16.5 6.945 16.5 9Z" stroke="black" stroke-width="1.5" stroke-linecap="round" stroke-linejoin="round"/>
<path d="M13.3135 5.2875C13.1335 5.2575 12.946 5.25001 12.751 5.25001H5.25105C5.04105 5.25001 4.83855 5.26501 4.64355 5.29501C4.74855 5.08501 4.89855 4.89001 5.07855 4.71001L7.51605 2.265C8.54355 1.245 10.2085 1.245 11.236 2.265L12.5485 3.59251C13.0285 4.06501 13.2835 4.665 13.3135 5.2875Z" stroke="black" stroke-width="1.5" stroke-linecap="round" stroke-linejoin="round"/>
<path d="M16.5 9.375H14.25C13.425 9.375 12.75 10.05 12.75 10.875C12.75 11.7 13.425 12.375 14.25 12.375H16.5" stroke="black" stroke-width="1.5" stroke-linecap="round" stroke-linejoin="round"/>
</g>
</g>
<defs>
<clipPath id="clip0_2375_3594">
<rect width="18" height="18" fill="white"/>
</clipPath>
</defs>
</svg>
