<svg width="24" height="8" viewBox="0 0 24 8" fill="none" xmlns="http://www.w3.org/2000/svg">
<path d="M23.9157 2.22007C23.806 1.90737 23.6019 1.63643 23.3316 1.44468C23.0613 1.25293 22.7382 1.14983 22.4068 1.1496H22.3914C22.1759 1.14948 21.9626 1.19304 21.7644 1.27764C21.5662 1.36225 21.3872 1.48616 21.2382 1.64187C21.0895 1.48612 20.9107 1.36217 20.7126 1.27756C20.5146 1.19294 20.3014 1.14941 20.0861 1.1496H20.0716C19.6889 1.14917 19.3189 1.28688 19.0296 1.5374V1.41507C19.0254 1.35572 18.9989 1.30016 18.9554 1.25958C18.9119 1.21901 18.8546 1.19643 18.7951 1.19641H17.7258C17.6631 1.19647 17.603 1.22137 17.5587 1.26567C17.5143 1.30996 17.4894 1.37003 17.4893 1.43271V7.2405C17.4891 7.27163 17.4952 7.30249 17.507 7.33129C17.5188 7.36009 17.5362 7.38627 17.5582 7.40833C17.5802 7.43039 17.6063 7.44789 17.6351 7.45983C17.6638 7.47178 17.6947 7.47793 17.7258 7.47793H18.7951C18.852 7.47795 18.907 7.45734 18.9499 7.41992C18.9928 7.3825 19.0206 7.3308 19.0283 7.27441V3.10535C19.0283 3.09133 19.0283 3.07731 19.0303 3.06329C19.0377 2.96906 19.0791 2.88074 19.147 2.81489C19.2148 2.74904 19.3042 2.71017 19.3987 2.70556H19.5963C19.6788 2.71095 19.7576 2.74132 19.8224 2.79262C19.8687 2.83033 19.9059 2.87808 19.931 2.93226C19.9562 2.98644 19.9687 3.04563 19.9676 3.10535L19.971 7.25384C19.9712 7.31667 19.9963 7.37686 20.0408 7.42121C20.0853 7.46555 20.1456 7.49042 20.2084 7.49036H21.2778C21.3385 7.49018 21.3967 7.46655 21.4404 7.42441C21.4841 7.38228 21.5099 7.32489 21.5122 7.26424V3.09902C21.5109 3.03307 21.5262 2.96786 21.5568 2.90937C21.5873 2.85089 21.632 2.80102 21.6868 2.76436C21.7462 2.72661 21.8139 2.70402 21.884 2.69855H22.0812C22.1829 2.70411 22.2784 2.74904 22.3476 2.82384C22.4167 2.89864 22.454 2.99742 22.4516 3.09924L22.4559 7.24185C22.4557 7.27297 22.4618 7.3038 22.4736 7.33259C22.4854 7.36138 22.5028 7.38755 22.5247 7.40961C22.5467 7.43166 22.5728 7.44917 22.6015 7.46113C22.6302 7.47308 22.661 7.47925 22.6922 7.47928H23.7613C23.7924 7.47925 23.8233 7.47309 23.852 7.46114C23.8808 7.44919 23.9069 7.4317 23.9289 7.40965C23.951 7.3876 23.9684 7.36143 23.9803 7.33264C23.9922 7.30385 23.9983 7.273 23.9983 7.24185V2.78719C24.0074 2.59531 23.9799 2.40344 23.9171 2.22188" fill="#00B2F1"/>
<path d="M16.6752 1.21178H16.0647V0.216834C16.0656 0.184712 16.0592 0.152803 16.0459 0.123547C16.0326 0.0942916 16.0128 0.0684646 15.988 0.0480405C15.9631 0.0276164 15.934 0.0131361 15.9027 0.00570766C15.8715 -0.00172079 15.8389 -0.00190034 15.8076 0.00518148C15.1292 0.191282 15.2649 1.1306 14.028 1.21088H13.9068C13.8893 1.21109 13.872 1.21306 13.855 1.21676C13.8027 1.22866 13.7561 1.25797 13.7227 1.29988C13.6893 1.34179 13.6711 1.39381 13.6711 1.44741V2.51584C13.671 2.54696 13.677 2.5778 13.6889 2.60659C13.7007 2.63537 13.7181 2.66154 13.74 2.6836C13.762 2.70566 13.7881 2.72316 13.8168 2.73512C13.8455 2.74708 13.8763 2.75325 13.9074 2.75328H14.553V7.2873C14.553 7.31805 14.559 7.34852 14.5707 7.37694C14.5825 7.40536 14.5997 7.43118 14.6214 7.45293C14.6432 7.47467 14.669 7.49191 14.6974 7.50365C14.7259 7.51539 14.7563 7.5214 14.7871 7.52134H15.844C15.8747 7.52131 15.905 7.51523 15.9334 7.50345C15.9617 7.49167 15.9874 7.47441 16.0091 7.45267C16.0307 7.43093 16.0479 7.40514 16.0596 7.37676C16.0712 7.34839 16.0772 7.31799 16.0771 7.2873V2.75328H16.6761C16.7072 2.75322 16.738 2.74702 16.7667 2.73505C16.7954 2.72308 16.8215 2.70557 16.8434 2.68352C16.8653 2.66147 16.8827 2.6353 16.8945 2.60653C16.9063 2.57776 16.9123 2.54694 16.9122 2.51584V1.44741C16.9123 1.41636 16.9062 1.3856 16.8944 1.35689C16.8826 1.32818 16.8652 1.30209 16.8433 1.28012C16.8213 1.25814 16.7953 1.24071 16.7666 1.22883C16.7379 1.21695 16.7072 1.21085 16.6761 1.21088" fill="#00B2F1"/>
<path d="M12.8273 1.212H11.7584C11.7273 1.21194 11.6965 1.21801 11.6677 1.22987C11.639 1.24173 11.6128 1.25915 11.5908 1.28112C11.5688 1.30309 11.5514 1.32918 11.5394 1.35791C11.5275 1.38663 11.5214 1.41743 11.5214 1.44853V3.65912C11.5205 3.72465 11.4939 3.78721 11.4474 3.8334C11.4009 3.87959 11.3382 3.90575 11.2727 3.90628H10.8233C10.7567 3.90616 10.6929 3.87961 10.6458 3.83247C10.5988 3.78533 10.5724 3.72144 10.5724 3.65483L10.5685 1.44808C10.5686 1.41702 10.5625 1.38625 10.5506 1.35754C10.5388 1.32883 10.5214 1.30275 10.4994 1.28077C10.4775 1.2588 10.4514 1.24138 10.4227 1.2295C10.394 1.21762 10.3633 1.21152 10.3322 1.21155H9.26218C9.23114 1.21155 9.20041 1.21767 9.17174 1.22956C9.14307 1.24145 9.11702 1.25888 9.09509 1.28085C9.07316 1.30282 9.05579 1.3289 9.04395 1.35759C9.03211 1.38629 9.02605 1.41704 9.02611 1.44808V3.87168C9.01776 4.08102 9.05285 4.28982 9.12916 4.48493C9.20548 4.68004 9.32137 4.85723 9.46953 5.00535C9.61769 5.15347 9.79492 5.26931 9.99005 5.34557C10.1852 5.42183 10.394 5.45686 10.6033 5.44845C10.6033 5.44845 11.2948 5.44845 11.3161 5.45229C11.3775 5.45802 11.4346 5.48635 11.4763 5.5318C11.518 5.57725 11.5413 5.63657 11.5417 5.69825C11.5421 5.75993 11.5196 5.81956 11.4786 5.86558C11.4375 5.9116 11.3808 5.94071 11.3195 5.94728C11.314 5.94728 11.3088 5.94931 11.3021 5.95022L9.73795 5.9561C9.70686 5.95607 9.67606 5.96216 9.64733 5.97403C9.61859 5.9859 9.59248 6.00332 9.57047 6.02528C9.54847 6.04725 9.531 6.07333 9.51908 6.10204C9.50715 6.13075 9.501 6.16154 9.50097 6.19263V7.26197C9.50121 7.3247 9.52627 7.3848 9.57067 7.42912C9.61507 7.47343 9.67521 7.49838 9.73795 7.4985H11.4859C11.6953 7.50694 11.9042 7.47192 12.0994 7.39565C12.2946 7.31938 12.4719 7.20351 12.6201 7.05535C12.7683 6.90718 12.8842 6.72992 12.9605 6.53474C13.0369 6.33956 13.0719 6.13068 13.0636 5.92128V1.44853C13.0636 1.41745 13.0576 1.38667 13.0457 1.35794C13.0338 1.32922 13.0164 1.30312 12.9944 1.28115C12.9724 1.25917 12.9463 1.24175 12.9176 1.22988C12.8889 1.21802 12.8583 1.21194 12.8273 1.212Z" fill="#0C2756"/>
<path d="M2.5698 1.21247H0.232116C0.20167 1.21241 0.171512 1.21835 0.143367 1.22996C0.115221 1.24157 0.0896426 1.25862 0.0680931 1.28013C0.0465436 1.30163 0.0294461 1.32718 0.0177812 1.3553C0.00611639 1.38343 0.000113448 1.41357 0.000113506 1.44402V7.25475C-0.00176557 7.31466 0.0197476 7.37294 0.0600985 7.41726C0.10045 7.46158 0.156468 7.48845 0.216287 7.49218H1.30598C1.33722 7.49233 1.36817 7.48629 1.39706 7.47441C1.42594 7.46254 1.45219 7.44506 1.47429 7.42298C1.49638 7.40091 1.51389 7.37468 1.52579 7.3458C1.53769 7.31693 1.54376 7.28598 1.54364 7.25475L1.54748 5.62936H2.57047C2.76387 5.63877 2.9571 5.60761 3.13774 5.53788C3.31838 5.46815 3.48243 5.3614 3.61935 5.22448C3.75626 5.08756 3.86302 4.92351 3.93275 4.74288C4.00248 4.56224 4.03364 4.36901 4.02423 4.17561V2.66713C4.03352 2.47371 4.00228 2.28048 3.93253 2.09983C3.86277 1.91918 3.75603 1.75511 3.61916 1.61813C3.48228 1.48115 3.31829 1.37428 3.1377 1.30438C2.95711 1.23449 2.76323 1.20333 2.5698 1.21247ZM2.47663 3.83144C2.47651 3.89786 2.45008 3.96152 2.40312 4.00848C2.35615 4.05544 2.2925 4.08187 2.22608 4.08199H1.54771V2.75916H2.22608C2.259 2.75913 2.29159 2.76559 2.322 2.77817C2.35241 2.79075 2.38004 2.80921 2.40331 2.83248C2.42658 2.85575 2.44504 2.88338 2.45762 2.91379C2.4702 2.9442 2.47666 2.9768 2.47663 3.00971V3.83144Z" fill="#0C2756"/>
<path d="M6.7436 1.21788H5.26022C5.1993 1.21592 5.14009 1.23816 5.09552 1.27972C5.05094 1.32129 5.02463 1.3788 5.02234 1.4397V2.44257C5.02469 2.50717 5.05259 2.5682 5.09991 2.61225C5.14722 2.6563 5.21008 2.67977 5.27469 2.67751H6.68752C6.74362 2.68488 6.79545 2.71142 6.83423 2.75263C6.87301 2.79384 6.89635 2.84719 6.9003 2.90364V3.04135C6.89629 3.09634 6.87342 3.14826 6.83556 3.18835C6.7977 3.22843 6.74717 3.25422 6.69249 3.26137H5.99377C5.06304 3.26137 4.39959 3.87936 4.39959 4.74723V5.99092C4.38849 6.18929 4.41969 6.38776 4.49111 6.57316C4.56253 6.75856 4.67254 6.92666 4.81385 7.06633C4.95516 7.20599 5.12455 7.31403 5.31077 7.38327C5.497 7.45251 5.69582 7.48138 5.89405 7.46796H7.83329C7.99479 7.47334 8.15182 7.41448 8.26999 7.30428C8.38817 7.19407 8.45783 7.04152 8.46373 6.88004V2.82314C8.46373 1.83882 7.95563 1.21788 6.7436 1.21788ZM6.91432 5.84869C6.91384 5.86184 6.91225 5.87492 6.90957 5.88781C6.90724 5.8996 6.90414 5.91123 6.9003 5.92263C6.88184 5.97073 6.84902 6.01198 6.8063 6.04078C6.76358 6.06959 6.71303 6.08455 6.66151 6.08363H6.21673C6.15221 6.08571 6.0895 6.06216 6.0423 6.01814C5.99509 5.97411 5.96724 5.91319 5.96482 5.84869V4.93311C5.96747 4.86877 5.99543 4.80807 6.04261 4.76424C6.08978 4.72041 6.15236 4.69699 6.21673 4.69907H6.66151C6.72621 4.69693 6.78912 4.72049 6.83649 4.7646C6.88386 4.80871 6.91185 4.86978 6.91432 4.93446V5.84869Z" fill="#0C2756"/>
</svg>
