<svg width="38" height="40" viewBox="0 0 38 40" fill="none" xmlns="http://www.w3.org/2000/svg">
<path d="M22.2404 30.0456L13.8426 25.4648C12.3827 27.025 10.3052 28 8 28C3.58172 28 0 24.4182 0 20C0 15.5817 3.58172 12 8 12C10.3051 12 12.3825 12.9749 13.8424 14.5349L22.2404 9.95426C22.0834 9.32882 22 8.67414 22 8C22 3.58172 25.5818 0 30 0C34.4182 0 38 3.58172 38 8C38 12.4183 34.4182 16 30 16C27.6948 16 25.6174 15.025 24.1574 13.4649L15.7595 18.0456C15.9166 18.671 16 19.3258 16 20C16 20.6742 15.9166 21.3288 15.7596 21.9542L24.1576 26.535C25.6174 24.975 27.6948 24 30 24C34.4182 24 38 27.5818 38 32C38 36.4182 34.4182 40 30 40C25.5818 40 22 36.4182 22 32C22 31.3258 22.0834 30.671 22.2404 30.0456ZM8 24C10.2091 24 12 22.2092 12 20C12 17.7908 10.2091 16 8 16C5.79086 16 4 17.7908 4 20C4 22.2092 5.79086 24 8 24ZM30 12C32.2092 12 34 10.2091 34 8C34 5.79086 32.2092 4 30 4C27.7908 4 26 5.79086 26 8C26 10.2091 27.7908 12 30 12ZM30 36C32.2092 36 34 34.2092 34 32C34 29.7908 32.2092 28 30 28C27.7908 28 26 29.7908 26 32C26 34.2092 27.7908 36 30 36Z" fill="#0866FF"/>
</svg>
