<svg width="113" height="113" viewBox="0 0 113 113" fill="none" xmlns="http://www.w3.org/2000/svg">
<path d="M13.181 26.656C13.181 23.0823 14.6007 19.6548 17.1278 17.1278C19.6548 14.6007 23.0823 13.181 26.656 13.181H32.781C36.3391 13.179 39.7519 11.7699 42.2748 9.26105L46.5623 4.97355C47.8145 3.71425 49.3034 2.7149 50.9432 2.03298C52.583 1.35105 54.3414 1 56.1173 1C57.8932 1 59.6516 1.35105 61.2914 2.03298C62.9312 2.7149 64.4201 3.71425 65.6723 4.97355L69.9598 9.26105C72.4833 11.7723 75.901 13.181 79.4536 13.181H85.5786C89.1524 13.181 92.5798 14.6007 95.1068 17.1278C97.6339 19.6548 99.0536 23.0823 99.0536 26.656V32.781C99.0536 36.3335 100.462 39.7513 102.974 42.2748L107.261 46.5623C108.52 47.8145 109.52 49.3034 110.202 50.9432C110.884 52.583 111.235 54.3414 111.235 56.1173C111.235 57.8932 110.884 59.6516 110.202 61.2914C109.52 62.9312 108.52 64.4201 107.261 65.6723L102.974 69.9598C100.465 72.4828 99.0556 75.8955 99.0536 79.4536V85.5786C99.0536 89.1524 97.6339 92.5798 95.1068 95.1068C92.5798 97.6339 89.1524 99.0536 85.5786 99.0536H79.4536C75.8955 99.0556 72.4828 100.465 69.9598 102.974L65.6723 107.261C64.4201 108.52 62.9312 109.52 61.2914 110.202C59.6516 110.884 57.8932 111.235 56.1173 111.235C54.3414 111.235 52.583 110.884 50.9432 110.202C49.3034 109.52 47.8145 108.52 46.5623 107.261L42.2748 102.974C39.7519 100.465 36.3391 99.0556 32.781 99.0536H26.656C23.0823 99.0536 19.6548 97.6339 17.1278 95.1068C14.6007 92.5798 13.181 89.1524 13.181 85.5786V79.4536C13.179 75.8955 11.7699 72.4828 9.26105 69.9598L4.97355 65.6723C3.71425 64.4201 2.7149 62.9312 2.03298 61.2914C1.35105 59.6516 1 57.8932 1 56.1173C1 54.3414 1.35105 52.583 2.03298 50.9432C2.7149 49.3034 3.71425 47.8145 4.97355 46.5623L9.26105 42.2748C11.7699 39.7519 13.179 36.3391 13.181 32.781V26.656Z" fill="#03C95A"/>
<path d="M37.6812 56.056L49.9312 68.306L74.4312 43.806" fill="#03C95A"/>
<path d="M37.6812 56.056L49.9312 68.306L74.4312 43.806M13.181 26.656C13.181 23.0823 14.6007 19.6548 17.1278 17.1278C19.6548 14.6007 23.0823 13.181 26.656 13.181H32.781C36.3391 13.179 39.7519 11.7699 42.2748 9.26105L46.5623 4.97355C47.8145 3.71425 49.3034 2.7149 50.9432 2.03298C52.5829 1.35105 54.3414 1 56.1173 1C57.8932 1 59.6516 1.35105 61.2914 2.03298C62.9312 2.7149 64.4201 3.71425 65.6723 4.97355L69.9598 9.26105C72.4833 11.7723 75.901 13.181 79.4535 13.181H85.5786C89.1523 13.181 92.5798 14.6007 95.1068 17.1278C97.6339 19.6548 99.0536 23.0823 99.0536 26.656V32.781C99.0536 36.3335 100.462 39.7513 102.974 42.2748L107.261 46.5623C108.52 47.8145 109.52 49.3034 110.202 50.9432C110.884 52.5829 111.235 54.3414 111.235 56.1173C111.235 57.8932 110.884 59.6516 110.202 61.2914C109.52 62.9312 108.52 64.4201 107.261 65.6723L102.974 69.9598C100.465 72.4828 99.0556 75.8955 99.0536 79.4535V85.5786C99.0536 89.1523 97.6339 92.5798 95.1068 95.1068C92.5798 97.6339 89.1523 99.0536 85.5786 99.0536H79.4535C75.8955 99.0556 72.4828 100.465 69.9598 102.974L65.6723 107.261C64.4201 108.52 62.9312 109.52 61.2914 110.202C59.6516 110.884 57.8932 111.235 56.1173 111.235C54.3414 111.235 52.5829 110.884 50.9432 110.202C49.3034 109.52 47.8145 108.52 46.5623 107.261L42.2748 102.974C39.7519 100.465 36.3391 99.0556 32.781 99.0536H26.656C23.0823 99.0536 19.6548 97.6339 17.1278 95.1068C14.6007 92.5798 13.181 89.1523 13.181 85.5786V79.4535C13.179 75.8955 11.7699 72.4828 9.26105 69.9598L4.97355 65.6723C3.71425 64.4201 2.7149 62.9312 2.03298 61.2914C1.35105 59.6516 1 57.8932 1 56.1173C1 54.3414 1.35105 52.5829 2.03298 50.9432C2.7149 49.3034 3.71425 47.8145 4.97355 46.5623L9.26105 42.2748C11.7699 39.7519 13.179 36.3391 13.181 32.781V26.656Z" stroke="white" stroke-width="2" stroke-linecap="round" stroke-linejoin="round"/>
</svg>
