<?xml version="1.0" encoding="UTF-8"?>
<svg version="1.1" xmlns="http://www.w3.org/2000/svg" width="96" height="96">
<path d="M0 0 C0.86882812 0.44730469 1.73765625 0.89460937 2.6328125 1.35546875 C14.24699311 7.82127378 21.89037418 17.56310365 25.9375 30.3125 C29.15059769 44.26939309 27.07295377 57.66571381 19.6875 69.875 C12.49922263 80.36805743 2.68465427 88.31406857 -10 91 C-20.41329267 92.64823896 -30.82182935 92.1927113 -40.58203125 87.8515625 C-43.49870771 86.82436465 -45.11718537 87.05451215 -48.125 87.6875 C-49.07761719 87.88472656 -50.03023437 88.08195312 -51.01171875 88.28515625 C-54.9051184 89.21651852 -58.75299123 90.272613 -62.58984375 91.4140625 C-65 92 -65 92 -69 92 C-68.22945454 85.64709857 -66.56400369 79.75872966 -64.7421875 73.62109375 C-63.54746294 67.79209549 -65.09586766 63.53946532 -67.0625 58.0625 C-71.1403644 44.93267286 -69.6501128 32.27555656 -63.52734375 20.0625 C-56.55373744 8.19253182 -46.3643625 0.29914327 -33.09350586 -3.5534668 C-22.46048208 -5.82143187 -9.60440197 -5.08560957 0 0 Z M-48.9375 15.375 C-57.25757527 24.62627591 -60.6009135 34.37739771 -60.29296875 46.8125 C-59.76965023 52.50620548 -58.57321083 57.83005403 -55.1875 62.5 C-53.19613475 66.69234789 -54.88804535 70.66066479 -56 75 C-56.34222209 76.66486424 -56.67813691 78.33108028 -57 80 C-56.04480469 79.72542969 -55.08960938 79.45085937 -54.10546875 79.16796875 C-44.66788877 76.71334055 -39.69709664 77.11715906 -31 82 C-27.9042893 82.89207179 -27.9042893 82.89207179 -25 83 C-23.783125 83.0825 -22.56625 83.165 -21.3125 83.25 C-10.21575317 83.03863339 -0.27579371 78.15699035 7.8125 70.75 C15.64623125 62.39894687 18.52721352 51.61120445 18.30859375 40.41015625 C17.42528923 30.64908223 13.64138247 23.0935617 7 16 C6.21496094 15.15308594 6.21496094 15.15308594 5.4140625 14.2890625 C-1.15026232 7.98090645 -10.47383666 4.39876352 -19.51171875 3.9375 C-30.38863637 4.21070358 -40.9339178 7.78809019 -48.9375 15.375 Z " fill="#24D265" transform="translate(69,4)"/>
<path d="M0 0 C1.6875 2 1.6875 2 3 5 C3.31324219 5.639375 3.62648438 6.27875 3.94921875 6.9375 C4.86444567 8.97648655 5.58890749 10.80154875 6 13 C4.625 15.75 4.625 15.75 3 18 C3.57982682 22.75457992 6.66218198 25.79599206 10 29 C13.22250271 31.33682543 15.91565563 33 20 33 C22.20142332 30.5609294 22.20142332 30.5609294 24 28 C29.70629354 28.42797202 33.41078616 30.84345952 38 34 C36.93849081 41.07672796 36.93849081 41.07672796 34.5546875 43.421875 C30.37989717 46.00537754 26.91909023 46.6558787 22 46 C14.6058256 44.02674206 8.71445212 41.06908278 3 36 C2.32066406 35.401875 1.64132813 34.80375 0.94140625 34.1875 C-4.96546117 28.64911392 -10.57456082 21.99616548 -12.0625 13.8125 C-11.97692333 8.59232335 -10.63474186 5.41319037 -7.6875 1.0625 C-4.98548923 -0.63876604 -3.10029482 -0.5167158 0 0 Z " fill="#24D265" transform="translate(35,25)"/>
</svg>
